<svg width="84" height="84" viewBox="0 0 84 84" fill="none" xmlns="http://www.w3.org/2000/svg">
<g filter="url(#filter0_d_13_326)">
<rect x="12" y="6" width="60" height="60" rx="8" fill="white"/>
<path d="M37.3921 30.2289V27.3115H40.3095V30.2289H37.3921Z" fill="#00BCD4"/>
<path d="M52.1664 34.9133V40.8434H49.2491V35.8984C49.2491 34.8847 48.4768 34.052 47.4916 33.9504C47.4249 33.944 47.3582 33.9408 47.2914 33.9408H47.2883C47.2501 33.9408 47.212 33.9408 47.1739 33.9472C47.1707 33.944 47.1675 33.944 47.1643 33.9472C46.3603 33.9949 45.6866 34.5319 45.4387 35.2629C45.4164 35.3201 45.4005 35.3804 45.3878 35.4408C45.3878 35.4408 45.3847 35.4472 45.3847 35.4504C45.3751 35.4853 45.3688 35.5171 45.3656 35.5521C45.3465 35.641 45.3338 35.7364 45.3338 35.8317V40.8434H42.4673V31.5764H45.3847V33.1273C45.3847 33.1273 45.391 33.1114 45.3974 33.1018C45.7152 32.5552 46.1569 32.1326 46.7226 31.8338C47.1961 31.5828 47.7205 31.4398 48.2957 31.3984C48.4069 31.3889 48.5213 31.3857 48.6389 31.3857C49.3253 31.3857 49.9323 31.5478 50.4599 31.872C50.9175 32.1548 51.2925 32.5139 51.5817 32.9557C51.6262 33.0192 51.6675 33.0891 51.7088 33.159C52.0139 33.6929 52.1664 34.2777 52.1664 34.9133V34.9133Z" fill="#121417"/>
<path d="M27.5943 31.5764V32.1929C27.3814 32.015 27.1462 31.8624 26.8793 31.7385C26.3772 31.5033 25.8083 31.3857 25.1727 31.3857C24.321 31.3857 23.5647 31.5859 22.9037 31.9864C22.2426 32.3868 21.7215 32.9334 21.3401 33.6262C20.9587 34.319 20.7681 35.0976 20.7681 35.962C20.7681 36.8264 20.9587 37.5891 21.3401 38.2883C21.7215 38.9874 22.2426 39.5404 22.9037 39.9472C23.5647 40.354 24.321 40.5573 25.1727 40.5573C25.7956 40.5573 26.3613 40.4366 26.8698 40.1951C27.1145 40.0775 27.3369 39.9376 27.5371 39.7787V40.3667C27.5371 41.015 27.3306 41.5171 26.9174 41.873C26.5043 42.229 25.9354 42.4069 25.2109 42.4069C24.6261 42.4069 24.1272 42.3052 23.714 42.1018C23.3009 41.8985 22.9291 41.5997 22.5986 41.2057L20.8062 42.998C21.2511 43.6336 21.8581 44.1262 22.6272 44.4758C23.3962 44.8254 24.2893 45.0001 25.3062 45.0001C26.3232 45.0001 27.1812 44.8031 27.9566 44.409C28.732 44.015 29.3422 43.4684 29.7871 42.7692C30.232 42.0701 30.4545 41.2438 30.4545 40.2904V31.5764H27.5943V31.5764ZM26.784 37.6972C26.4852 37.8751 26.1325 37.9641 25.7257 37.9641C25.3189 37.9641 24.9662 37.8751 24.6674 37.6972C24.3687 37.5192 24.1367 37.2745 23.9715 36.9631C23.8062 36.6516 23.7236 36.3179 23.7236 35.962C23.7236 35.5807 23.8062 35.2374 23.9715 34.9324C24.1367 34.6273 24.3719 34.3857 24.677 34.2078C24.982 34.0298 25.3316 33.9408 25.7257 33.9408C26.1198 33.9408 26.4852 34.0298 26.784 34.2078C27.0827 34.3857 27.3115 34.6273 27.4704 34.9324C27.6293 35.2374 27.7087 35.5807 27.7087 35.962C27.7087 36.3434 27.6293 36.6834 27.4704 36.9821C27.3115 37.2809 27.0827 37.5192 26.784 37.6972Z" fill="#121417"/>
<path d="M32.5137 40.8432V27H35.431V40.8432H32.5137Z" fill="#121417"/>
<path d="M37.3921 40.8431V31.5762H40.3095V40.8431H37.3921Z" fill="#121417"/>
<path d="M60.3717 31.5637V32.1803C60.1588 32.0023 59.9236 31.8497 59.6566 31.7258C59.1545 31.4906 58.5857 31.373 57.9501 31.373C57.0984 31.373 56.342 31.5733 55.681 31.9737C55.02 32.3741 54.4988 32.9207 54.1174 33.6135C53.7361 34.3063 53.5454 35.0849 53.5454 35.9493C53.5454 36.8137 53.7361 37.5764 54.1174 38.2756C54.4988 38.9747 55.02 39.5277 55.681 39.9345C56.342 40.3413 57.0984 40.5447 57.9501 40.5447C58.573 40.5447 59.1386 40.4239 59.6471 40.1824C59.8918 40.0648 60.1143 39.925 60.3145 39.7661V40.354C60.3145 41.0023 60.1079 41.5044 59.6948 41.8603C59.2816 42.2163 58.7128 42.3942 57.9882 42.3942C57.4035 42.3942 56.9045 42.2925 56.4914 42.0891C56.0783 41.8858 55.7064 41.587 55.3759 41.193L53.5835 42.9853C54.0285 43.6209 54.6355 44.1135 55.4045 44.4631C56.1736 44.8127 57.0666 44.9874 58.0835 44.9874C59.1005 44.9874 59.9585 44.7904 60.734 44.3964C61.5094 44.0023 62.1196 43.4557 62.5645 42.7565C63.0094 42.0574 63.2318 41.2311 63.2318 40.2777V31.5637H60.3717V31.5637ZM59.5613 37.6845C59.2626 37.8624 58.9098 37.9514 58.503 37.9514C58.0963 37.9514 57.7435 37.8624 57.4448 37.6845C57.146 37.5065 56.9141 37.2618 56.7488 36.9504C56.5835 36.6389 56.5009 36.3052 56.5009 35.9493C56.5009 35.568 56.5835 35.2247 56.7488 34.9197C56.9141 34.6146 57.1492 34.373 57.4543 34.1951C57.7594 34.0171 58.109 33.9281 58.503 33.9281C58.8971 33.9281 59.2626 34.0171 59.5613 34.1951C59.86 34.373 60.0888 34.6146 60.2477 34.9197C60.4066 35.2247 60.4861 35.568 60.4861 35.9493C60.4861 36.3307 60.4066 36.6707 60.2477 36.9694C60.0888 37.2682 59.86 37.5065 59.5613 37.6845Z" fill="#121417"/>
</g>
<defs>
<filter id="filter0_d_13_326" x="0" y="0" width="84" height="84" filterUnits="userSpaceOnUse" color-interpolation-filters="sRGB">
<feFlood flood-opacity="0" result="BackgroundImageFix"/>
<feColorMatrix in="SourceAlpha" type="matrix" values="0 0 0 0 0 0 0 0 0 0 0 0 0 0 0 0 0 0 127 0" result="hardAlpha"/>
<feOffset dy="6"/>
<feGaussianBlur stdDeviation="6"/>
<feColorMatrix type="matrix" values="0 0 0 0 0.439216 0 0 0 0 0.564706 0 0 0 0 0.690196 0 0 0 0.2 0"/>
<feBlend mode="normal" in2="BackgroundImageFix" result="effect1_dropShadow_13_326"/>
<feBlend mode="normal" in="SourceGraphic" in2="effect1_dropShadow_13_326" result="shape"/>
</filter>
</defs>
</svg>
