<?xml version="1.0" encoding="utf-8"?>
<!-- Generator: Adobe Illustrator 27.1.1, SVG Export Plug-In . SVG Version: 6.00 Build 0)  -->
<svg version="1.1" id="Layer_1" xmlns="http://www.w3.org/2000/svg" xmlns:xlink="http://www.w3.org/1999/xlink" x="0px" y="0px"
	 viewBox="0 0 242 490" style="enable-background:new 0 0 242 490;" xml:space="preserve">
<style type="text/css">
	.st0{fill:#FFFFFF;}
	.st1{opacity:0.35;enable-background:new    ;}
	.st2{fill:#121417;}
	.st3{opacity:0.4;enable-background:new    ;}
	.st4{fill-rule:evenodd;clip-rule:evenodd;fill:#121417;}
	.st5{fill:#00BCD4;}
	.st6{fill:#DEE2E6;}
	.st7{fill:#F8F9FA;}
</style>
<g>
	<g>
		<path class="st0" d="M14.7,10.1c-1.1,1-2.2,2.1-3.2,3.2V12c0.6-0.7,1.3-1.3,1.9-1.9H14.7z"/>
		<path class="st0" d="M228.5,12.4v1.3c-1.1-1.3-2.3-2.5-3.5-3.6h1.3C227,10.8,227.8,11.6,228.5,12.4z"/>
		<path class="st0" d="M228.5,32v3.6h-217v-5.2c2.2-10.1,10.2-18.1,20.4-20.3h175.9C218.5,12.4,226.8,21.1,228.5,32z"/>
	</g>
	<g class="st1">
		<path class="st2" d="M217.1,20.2h-9.7c-0.8,0-1.5,0.7-1.5,1.6v3.5c0,0.9,0.7,1.5,1.5,1.5h9.7c0.8,0,1.5-0.7,1.5-1.5v-3.5
			C218.7,20.8,218,20.2,217.1,20.2z M218.1,25.2c0,0.5-0.4,1-1,1h-9.7c-0.5,0-1-0.4-1-1v-3.5c0-0.5,0.4-1,1-1h9.7c0.5,0,1,0.4,1,1
			V25.2z"/>
	</g>
	<g class="st3">
		<path class="st2" d="M219.2,22.3v2.3c0.5-0.2,0.8-0.7,0.8-1.2C220,22.9,219.7,22.5,219.2,22.3L219.2,22.3z"/>
	</g>
	<g>
		<path class="st2" d="M207.1,22c0-0.4,0.3-0.6,0.6-0.6h9.1c0.4,0,0.6,0.3,0.6,0.6v3c0,0.4-0.3,0.6-0.6,0.6h-9.1
			c-0.4,0-0.6-0.3-0.6-0.6V22z"/>
	</g>
	<g>
		<path class="st4" d="M203,21.9c-2.4-2.3-6.3-2.3-8.7,0l-0.1,0.1c0,0,0,0.1,0.1,0.1l0.7,0.7c0.1,0.1,0.2,0.1,0.2,0
			c0.9-0.9,2.2-1.4,3.4-1.4c1.3,0,2.5,0.5,3.4,1.4c0.1,0.1,0.2,0.1,0.3,0l0.7-0.7l0.1-0.1C203.1,22,203,22,203,21.9z M201.4,23.5
			c-1.6-1.5-4-1.5-5.6,0l-0.1,0.1c0,0.1,0,0.1,0.1,0.1l0.7,0.7c0.1,0.1,0.2,0.1,0.2,0c0.5-0.5,1.2-0.7,1.9-0.7s1.4,0.3,1.9,0.7
			c0.1,0.1,0.2,0.1,0.2,0l0.7-0.7v-0.1C201.5,23.5,201.5,23.5,201.4,23.5z M199.9,25c-0.7-0.6-1.8-0.6-2.6,0l-0.1,0.1
			c0,0,0,0.1,0.1,0.1l1.1,1.2l0.1,0.1c0.1,0,0.1,0,0.1-0.1l1.2-1.2l0.1-0.1C199.9,25.1,199.9,25.1,199.9,25z"/>
	</g>
	<g>
		<path class="st4" d="M190.7,20.4h-0.6c-0.3,0-0.6,0.2-0.6,0.6v5c0,0.3,0.3,0.6,0.6,0.6h0.6c0.3,0,0.6-0.3,0.6-0.6v-5
			C191.3,20.6,191,20.4,190.7,20.4z M188,21.7h-0.6c-0.3,0-0.6,0.2-0.6,0.6V26c0,0.3,0.3,0.6,0.6,0.6h0.6c0.3,0,0.6-0.3,0.6-0.6
			v-3.7C188.6,22,188.3,21.7,188,21.7z M185.3,23.1h-0.6c-0.3,0-0.6,0.3-0.6,0.6V26c0,0.3,0.3,0.6,0.6,0.6h0.6
			c0.3,0,0.6-0.3,0.6-0.6v-2.3C185.9,23.3,185.6,23.1,185.3,23.1z M182.6,24.2H182c-0.3,0-0.6,0.3-0.6,0.6V26c0,0.3,0.3,0.6,0.6,0.6
			h0.6c0.3,0,0.6-0.3,0.6-0.6v-1.2C183.2,24.5,182.9,24.2,182.6,24.2z"/>
	</g>
	<g>
		<path d="M34.9,20.4c-1.3,0-2.3,0.9-2.3,2.1s0.8,2,2,2c0.8,0,1.4-0.4,1.6-0.9h0.1v0.1c0,1.2-0.5,2.1-1.4,2.1
			c-0.5,0-0.9-0.3-1.1-0.7l0,0h-1.1v0.1c0.2,0.9,1,1.6,2.2,1.6c1.5,0,2.5-1.2,2.5-3.3l0,0C37.4,21.3,36.2,20.4,34.9,20.4z
			 M36.2,22.5c0,0.7-0.5,1.2-1.2,1.2s-1.2-0.5-1.2-1.2l0,0c0-0.7,0.5-1.2,1.2-1.2C35.6,21.3,36.2,21.8,36.2,22.5L36.2,22.5z"/>
	</g>
	<g>
		<path d="M39,21.3c-0.4,0-0.7,0.3-0.7,0.7c0,0.4,0.3,0.7,0.7,0.7s0.7-0.3,0.7-0.7C39.7,21.7,39.4,21.3,39,21.3z M39,24.5
			c-0.4,0-0.7,0.3-0.7,0.7c0,0.4,0.3,0.7,0.7,0.7s0.7-0.3,0.7-0.7S39.4,24.5,39,24.5z"/>
	</g>
	<g>
		<path d="M44.7,24.6v-4h-1.5c-0.8,1.3-1.7,2.7-2.5,4.1v0.9h3v1.2h1v-1.2h0.8v-0.9h-0.8V24.6z M43.6,24.6h-2v-0.1
			c0.6-1,1.3-2.2,1.9-3.1h0.1V24.6z"/>
	</g>
	<g>
		<path d="M47.7,26.7h1.1v-6.1h-1.1l-1.6,1.1v1l1.5-1.1h0.1V26.7z"/>
	</g>
	<g>
		<rect x="11.5" y="35.6" class="st0" width="217" height="25.5"/>
	</g>
	<g>
		<path class="st5" d="M116.4,43.9v-2.3h2.3v2.3H116.4z"/>
	</g>
	<g>
		<path class="st2" d="M127.8,47.5v4.6h-2.3v-3.8c0-0.8-0.6-1.4-1.4-1.5c-0.1,0-0.1,0-0.2,0l0,0h-0.1l0,0c-0.6,0-1.1,0.5-1.3,1v0.1
			l0,0V48c0,0.1,0,0.1,0,0.2v3.9h-2.2V45h2.3v1.2l0,0c0.2-0.4,0.6-0.7,1-1c0.4-0.2,0.8-0.3,1.2-0.3c0.1,0,0.2,0,0.3,0
			c0.5,0,1,0.1,1.4,0.4c0.4,0.2,0.6,0.5,0.9,0.8c0,0,0.1,0.1,0.1,0.2C127.7,46.5,127.8,47,127.8,47.5L127.8,47.5z"/>
	</g>
	<g>
		<path class="st2" d="M108.9,44.9v0.5c-0.2-0.1-0.4-0.3-0.6-0.4c-0.4-0.2-0.8-0.3-1.3-0.3c-0.7,0-1.2,0.2-1.8,0.5s-0.9,0.7-1.2,1.3
			c-0.3,0.5-0.4,1.1-0.4,1.8s0.1,1.2,0.4,1.8c0.3,0.5,0.7,1,1.2,1.3s1.1,0.5,1.8,0.5c0.5,0,0.9-0.1,1.3-0.3c0.2-0.1,0.4-0.2,0.5-0.3
			v0.5c0,0.5-0.2,0.9-0.5,1.2s-0.8,0.4-1.3,0.4s-0.8-0.1-1.2-0.2c-0.3-0.2-0.6-0.4-0.9-0.7l-1.4,1.4c0.3,0.5,0.8,0.9,1.4,1.1
			c0.6,0.3,1.3,0.4,2.1,0.4c0.8,0,1.5-0.2,2-0.5c0.6-0.3,1.1-0.7,1.4-1.3c0.3-0.5,0.5-1.2,0.5-1.9V45L108.9,44.9L108.9,44.9z
			 M108.8,49.1c-0.1,0.2-0.3,0.4-0.5,0.5s-0.5,0.2-0.8,0.2s-0.6-0.1-0.8-0.2c-0.2-0.1-0.4-0.3-0.5-0.6c-0.1-0.2-0.2-0.5-0.2-0.8
			s0.1-0.6,0.2-0.8s0.3-0.4,0.5-0.6c0.2-0.1,0.5-0.2,0.8-0.2s0.6,0.1,0.8,0.2s0.4,0.3,0.5,0.6c0.1,0.2,0.2,0.5,0.2,0.8
			C109,48.6,108.9,48.8,108.8,49.1z"/>
	</g>
	<g>
		<path class="st2" d="M112.7,52.1V41.4h2.3v10.7C115,52.1,112.7,52.1,112.7,52.1z"/>
	</g>
	<g>
		<path class="st2" d="M116.4,52.1v-7.2h2.3v7.2H116.4z"/>
	</g>
	<g>
		<path class="st2" d="M134.2,44.9v0.5c-0.2-0.1-0.3-0.3-0.6-0.3c-0.4-0.2-0.8-0.3-1.3-0.3c-0.7,0-1.2,0.2-1.8,0.5
			c-0.5,0.3-0.9,0.7-1.2,1.3c-0.3,0.5-0.4,1.1-0.4,1.8s0.1,1.2,0.4,1.8c0.3,0.5,0.7,1,1.2,1.3s1.1,0.5,1.8,0.5
			c0.5,0,0.9-0.1,1.3-0.3c0.2-0.1,0.4-0.2,0.5-0.3v0.5c0,0.5-0.2,0.9-0.5,1.2s-0.8,0.4-1.3,0.4s-0.8-0.1-1.2-0.2
			c-0.3-0.2-0.6-0.4-0.9-0.7l-1.4,1.4c0.3,0.5,0.8,0.9,1.4,1.1c0.6,0.3,1.3,0.4,2.1,0.4s1.5-0.2,2-0.5c0.6-0.3,1.1-0.7,1.4-1.3
			c0.3-0.5,0.5-1.2,0.5-1.9v-6.7h-2V44.9z M134.1,49.1c-0.1,0.2-0.3,0.4-0.5,0.5s-0.5,0.2-0.8,0.2s-0.6-0.1-0.8-0.2
			c-0.2-0.1-0.4-0.3-0.5-0.6s-0.2-0.5-0.2-0.8s0.1-0.6,0.2-0.8c0.1-0.2,0.3-0.4,0.5-0.6c0.2-0.1,0.5-0.2,0.8-0.2s0.6,0.1,0.8,0.2
			c0.2,0.1,0.4,0.3,0.5,0.6c0.1,0.2,0.2,0.5,0.2,0.8C134.3,48.6,134.2,48.8,134.1,49.1z"/>
	</g>
	<g>
		<path class="st2" d="M213.5,53c0,0.6,0.5,1.2,1.1,1.2s1.2-0.5,1.2-1.2H213.5z M218.1,50.6v-2.9c0-1.8-1-3.3-2.6-3.7v-0.4
			c0-0.5-0.4-0.9-0.9-0.9s-0.9,0.4-0.9,0.9V44c-1.7,0.4-2.6,1.9-2.6,3.7v2.9l-1.2,1.2v0.6h9.3v-0.6L218.1,50.6z"/>
	</g>
	<g>
		<circle class="st5" cx="219.8" cy="43.1" r="1.7"/>
	</g>
	<g>
		<path class="st0" d="M236.6,189.3v0.3c2.4,0,4.4-1,4.4-2.2v-50.1c0-1.2-2-2.2-4.4-2.2v0.3H236v54h0.6V189.3z"/>
		<path class="st6" d="M237.7,134.6c-0.1,0-0.3,0-0.4,0c-0.1,0-0.3,0-0.4,0h-0.6v0.3h-0.6v54.8h0.6v0.3h0.6c0.2,0,0.3,0,0.4,0
			c0.2,0,0.3,0,0.4,0c2.2-0.2,3.8-1.3,3.8-2.6v-50.2C241.4,135.9,239.8,134.8,237.7,134.6z M240.6,187.3c0,0.7-1.2,1.5-2.9,1.7
			c-0.1,0-0.3,0-0.4,0c0,0-0.1,0-0.2,0v-0.3h-0.6v-53.1h0.6v-0.3c0,0,0.1,0,0.2,0c0.2,0,0.3,0,0.4,0c1.8,0.2,2.9,1,2.9,1.7V187.3z"
			/>
	</g>
	<g>
		<path class="st0" d="M228.8,453.5V36.1c0-1.4-0.1-2.8-0.3-4.1c-1.7-10.9-10-19.6-20.7-21.9c-1.8-0.4-3.7-0.6-5.6-0.6H37.5
			c-1.9,0-3.8,0.2-5.6,0.6c-10.2,2.2-18.2,10.1-20.4,20.3c-0.4,1.8-0.6,3.8-0.6,5.7v417.7c0,14.7,11.9,26.6,26.6,26.6h164.7
			c14.7,0,26.6-11.9,26.6-26.6V453.5z M202.2,480H37.5c-14.5,0-26.2-11.7-26.2-26.2V36.1c0-1.1,0.1-2.1,0.2-3.2
			c1.4-12,11-21.5,23.1-22.8c0.9-0.1,1.9-0.2,2.8-0.2h164.7c1,0,1.9,0.1,2.8,0.2c13,1.4,23.1,12.2,23.3,25.5c0,0.2,0,0.4,0,0.5
			v417.7l0,0C228.4,468.3,216.7,480,202.2,480z M228.8,453.5V36.1c0-1.4-0.1-2.8-0.3-4.1c-1.7-10.9-10-19.6-20.7-21.9
			c-1.8-0.4-3.7-0.6-5.6-0.6H37.5c-1.9,0-3.8,0.2-5.6,0.6c-10.2,2.2-18.2,10.1-20.4,20.3c-0.4,1.8-0.6,3.8-0.6,5.7v417.7
			c0,14.7,11.9,26.6,26.6,26.6h164.7c14.7,0,26.6-11.9,26.6-26.6V453.5z M202.2,480H37.5c-14.5,0-26.2-11.7-26.2-26.2V36.1
			c0-1.1,0.1-2.1,0.2-3.2c1.4-12,11-21.5,23.1-22.8c0.9-0.1,1.9-0.2,2.8-0.2h164.7c1,0,1.9,0.1,2.8,0.2c13,1.4,23.1,12.2,23.3,25.5
			c0,0.2,0,0.4,0,0.5v417.7l0,0C228.4,468.3,216.7,480,202.2,480z M228.5,13c-0.9-1-1.8-2-2.8-2.9c-6.2-5.6-14.4-9-23.4-9H37.5
			c-9,0-17.2,3.4-23.4,9c-0.9,0.8-1.7,1.7-2.5,2.5c-5.6,6.2-9,14.4-9,23.5v417.7c0,19.3,15.7,35,35,35h164.7c19.3,0,35-15.7,35-35
			V36.1C237.2,27.3,233.9,19.2,228.5,13z M236.2,134.5v0.3h-0.6v54.8h0.6v0.3h0.6v263.9c0,19-15.5,34.6-34.6,34.6H37.5
			c-19.1,0-34.6-15.5-34.6-34.6V202c0.1,0,0.2,0,0.3,0h0.4v-0.3h0.3v-35.3H3.6v-0.3H3.2c-0.1,0-0.2,0-0.3,0v-8.3c0.1,0,0.2,0,0.3,0
			h0.4v-0.3h0.3v-35.3H3.6V122H3.2c-0.1,0-0.2,0-0.3,0v-13c0.1,0,0.2,0,0.3,0h0.4v-0.3h0.3V90.6H3.6v-0.3H3.2c-0.1,0-0.2,0-0.3,0
			V36.1c0-8.7,3.2-16.7,8.6-22.8c1-1.1,2.1-2.2,3.2-3.2c6.1-5.3,14-8.6,22.8-8.6h164.7c8.7,0,16.7,3.2,22.8,8.6
			c1.3,1.1,2.4,2.3,3.5,3.6c5.2,6,8.3,13.9,8.3,22.4v98.4H236.2z M228.8,36.1c0-1.4-0.1-2.8-0.3-4.1c-1.7-10.9-10-19.6-20.7-21.9
			c-1.8-0.4-3.7-0.6-5.6-0.6H37.5c-1.9,0-3.8,0.2-5.6,0.6c-10.2,2.2-18.2,10.1-20.4,20.3c-0.4,1.8-0.6,3.8-0.6,5.7v417.7
			c0,14.7,11.9,26.6,26.6,26.6h164.7c14.7,0,26.6-11.9,26.6-26.6v-0.4V36.1z M202.2,480H37.5c-14.5,0-26.2-11.7-26.2-26.2V36.1
			c0-1.1,0.1-2.1,0.2-3.2c1.4-12,11-21.5,23.1-22.8c0.9-0.1,1.9-0.2,2.8-0.2h164.7c1,0,1.9,0.1,2.8,0.2c13,1.4,23.1,12.2,23.3,25.5
			c0,0.2,0,0.4,0,0.5v417.7l0,0C228.4,468.3,216.7,480,202.2,480z M228.8,453.5V36.1c0-1.4-0.1-2.8-0.3-4.1
			c-1.7-10.9-10-19.6-20.7-21.9c-1.8-0.4-3.7-0.6-5.6-0.6H37.5c-1.9,0-3.8,0.2-5.6,0.6c-10.2,2.2-18.2,10.1-20.4,20.3
			c-0.4,1.8-0.6,3.8-0.6,5.7v417.7c0,14.7,11.9,26.6,26.6,26.6h164.7c14.7,0,26.6-11.9,26.6-26.6V453.5z M202.2,480H37.5
			c-14.5,0-26.2-11.7-26.2-26.2V36.1c0-1.1,0.1-2.1,0.2-3.2c1.4-12,11-21.5,23.1-22.8c0.9-0.1,1.9-0.2,2.8-0.2h164.7
			c1,0,1.9,0.1,2.8,0.2c13,1.4,23.1,12.2,23.3,25.5c0,0.2,0,0.4,0,0.5v417.7l0,0C228.4,468.3,216.7,480,202.2,480z M228.8,453.5
			V36.1c0-1.4-0.1-2.8-0.3-4.1c-1.7-10.9-10-19.6-20.7-21.9c-1.8-0.4-3.7-0.6-5.6-0.6H37.5c-1.9,0-3.8,0.2-5.6,0.6
			c-10.2,2.2-18.2,10.1-20.4,20.3c-0.4,1.8-0.6,3.8-0.6,5.7v417.7c0,14.7,11.9,26.6,26.6,26.6h164.7c14.7,0,26.6-11.9,26.6-26.6
			V453.5z M202.2,480H37.5c-14.5,0-26.2-11.7-26.2-26.2V36.1c0-1.1,0.1-2.1,0.2-3.2c1.4-12,11-21.5,23.1-22.8
			c0.9-0.1,1.9-0.2,2.8-0.2h164.7c1,0,1.9,0.1,2.8,0.2c13,1.4,23.1,12.2,23.3,25.5c0,0.2,0,0.4,0,0.5v417.7l0,0
			C228.4,468.3,216.7,480,202.2,480z"/>
	</g>
	<g>
		<path class="st7" d="M164.1,21.8c0,3.6-3,6.6-6.6,6.6H82.2c-3.6,0-6.6-3-6.6-6.6s3-6.6,6.6-6.6h75.3
			C161.2,15.2,164.1,18.1,164.1,21.8L164.1,21.8z"/>
	</g>
	<g>
		<path class="st6" d="M228.8,453.5V36.1c0-1.4-0.1-2.8-0.3-4.1c-1.7-10.9-10-19.6-20.7-21.9c-1.8-0.4-3.7-0.6-5.6-0.6H37.5
			c-1.9,0-3.8,0.2-5.6,0.6c-10.2,2.2-18.2,10.1-20.4,20.3c-0.4,1.8-0.6,3.8-0.6,5.7v417.7c0,14.7,11.9,26.6,26.6,26.6h164.7
			c14.7,0,26.6-11.9,26.6-26.6V453.5z M202.2,479.6H37.5c-14.2,0-25.8-11.6-25.8-25.8V36.1c0-0.2,0-0.4,0-0.5
			C12,21.7,23.5,10.4,37.5,10.4h164.7c14,0,25.4,11.3,25.7,25.2c0,0.2,0,0.4,0,0.5v418.2l0,0C227.7,468.3,216.3,479.6,202.2,479.6z
			 M228.8,453.5V36.1c0-1.4-0.1-2.8-0.3-4.1c-1.7-10.9-10-19.6-20.7-21.9c-1.8-0.4-3.7-0.6-5.6-0.6H37.5c-1.9,0-3.8,0.2-5.6,0.6
			c-10.2,2.2-18.2,10.1-20.4,20.3c-0.4,1.8-0.6,3.8-0.6,5.7v417.7c0,14.7,11.9,26.6,26.6,26.6h164.7c14.7,0,26.6-11.9,26.6-26.6
			V453.5z M202.2,479.6H37.5c-14.2,0-25.8-11.6-25.8-25.8V36.1c0-0.2,0-0.4,0-0.5C12,21.7,23.5,10.4,37.5,10.4h164.7
			c14,0,25.4,11.3,25.7,25.2c0,0.2,0,0.4,0,0.5v418.2l0,0C227.7,468.3,216.3,479.6,202.2,479.6z M228.8,453.5V36.1
			c0-1.4-0.1-2.8-0.3-4.1c-1.7-10.9-10-19.6-20.7-21.9c-1.8-0.4-3.7-0.6-5.6-0.6H37.5c-1.9,0-3.8,0.2-5.6,0.6
			c-10.2,2.2-18.2,10.1-20.4,20.3c-0.4,1.8-0.6,3.8-0.6,5.7v417.7c0,14.7,11.9,26.6,26.6,26.6h164.7c14.7,0,26.6-11.9,26.6-26.6
			V453.5z M202.2,479.6H37.5c-14.2,0-25.8-11.6-25.8-25.8V36.1c0-0.2,0-0.4,0-0.5C12,21.7,23.5,10.4,37.5,10.4h164.7
			c14,0,25.4,11.3,25.7,25.2c0,0.2,0,0.4,0,0.5v418.2l0,0C227.7,468.3,216.3,479.6,202.2,479.6z M228.8,453.5V36.1
			c0-1.4-0.1-2.8-0.3-4.1c-1.7-10.9-10-19.6-20.7-21.9c-1.8-0.4-3.7-0.6-5.6-0.6H37.5c-1.9,0-3.8,0.2-5.6,0.6
			c-10.2,2.2-18.2,10.1-20.4,20.3c-0.4,1.8-0.6,3.8-0.6,5.7v417.7c0,14.7,11.9,26.6,26.6,26.6h164.7c14.7,0,26.6-11.9,26.6-26.6
			V453.5z M202.2,479.6H37.5c-14.2,0-25.8-11.6-25.8-25.8V36.1c0-0.2,0-0.4,0-0.5C12,21.7,23.5,10.4,37.5,10.4h164.7
			c14,0,25.4,11.3,25.7,25.2c0,0.2,0,0.4,0,0.5v418.2l0,0C227.7,468.3,216.3,479.6,202.2,479.6z M228.8,453.5V36.1
			c0-1.4-0.1-2.8-0.3-4.1c-1.7-10.9-10-19.6-20.7-21.9c-1.8-0.4-3.7-0.6-5.6-0.6H37.5c-1.9,0-3.8,0.2-5.6,0.6
			c-10.2,2.2-18.2,10.1-20.4,20.3c-0.4,1.8-0.6,3.8-0.6,5.7v417.7c0,14.7,11.9,26.6,26.6,26.6h164.7c14.7,0,26.6-11.9,26.6-26.6
			V453.5z M202.2,479.6H37.5c-14.2,0-25.8-11.6-25.8-25.8V36.1c0-0.2,0-0.4,0-0.5C12,21.7,23.5,10.4,37.5,10.4h164.7
			c14,0,25.4,11.3,25.7,25.2c0,0.2,0,0.4,0,0.5v418.2l0,0C227.7,468.3,216.3,479.6,202.2,479.6z M228.8,453.5V36.1
			c0-1.4-0.1-2.8-0.3-4.1c-1.7-10.9-10-19.6-20.7-21.9c-1.8-0.4-3.7-0.6-5.6-0.6H37.5c-1.9,0-3.8,0.2-5.6,0.6
			c-10.2,2.2-18.2,10.1-20.4,20.3c-0.4,1.8-0.6,3.8-0.6,5.7v417.7c0,14.7,11.9,26.6,26.6,26.6h164.7c14.7,0,26.6-11.9,26.6-26.6
			V453.5z M202.2,479.6H37.5c-14.2,0-25.8-11.6-25.8-25.8V36.1c0-0.2,0-0.4,0-0.5C12,21.7,23.5,10.4,37.5,10.4h164.7
			c14,0,25.4,11.3,25.7,25.2c0,0.2,0,0.4,0,0.5v418.2l0,0C227.7,468.3,216.3,479.6,202.2,479.6z M228.5,12.4
			c-0.7-0.8-1.5-1.6-2.2-2.3c-6.3-5.8-14.8-9.4-24-9.4H37.5c-9.3,0-17.7,3.6-24,9.4c-0.7,0.6-1.3,1.3-1.9,1.9
			C5.6,18.4,2,26.8,2,36.1v417.7c0,19.5,15.9,35.4,35.4,35.4h164.7c19.5,0,35.4-15.9,35.4-35.4V36.1C237.7,27,234.2,18.7,228.5,12.4
			z M236.8,453.9c0,19-15.5,34.6-34.6,34.6H37.5c-19.1,0-34.6-15.5-34.6-34.6V36.1c0-8.7,3.2-16.7,8.6-22.8c1-1.1,2.1-2.2,3.2-3.2
			c6.1-5.3,14-8.6,22.8-8.6h164.7c8.7,0,16.7,3.2,22.8,8.6c1.3,1.1,2.4,2.3,3.5,3.6c5.2,6,8.3,13.9,8.3,22.4V453.9z M228.5,32
			c-1.7-10.9-10-19.6-20.7-21.9c-1.8-0.4-3.7-0.6-5.6-0.6H37.5c-1.9,0-3.8,0.2-5.6,0.6c-10.2,2.2-18.2,10.1-20.4,20.3
			c-0.4,1.8-0.6,3.8-0.6,5.7v417.7c0,14.7,11.9,26.6,26.6,26.6h164.7c14.7,0,26.6-11.9,26.6-26.6v-0.4V36.1
			C228.8,34.7,228.7,33.4,228.5,32z M202.2,479.6H37.5c-14.2,0-25.8-11.6-25.8-25.8V36.1c0-0.2,0-0.4,0-0.5
			C12,21.7,23.5,10.4,37.5,10.4h164.7c14,0,25.4,11.3,25.7,25.2c0,0.2,0,0.4,0,0.5v418.2l0,0C227.7,468.3,216.3,479.6,202.2,479.6z
			 M228.8,453.5V36.1c0-1.4-0.1-2.8-0.3-4.1c-1.7-10.9-10-19.6-20.7-21.9c-1.8-0.4-3.7-0.6-5.6-0.6H37.5c-1.9,0-3.8,0.2-5.6,0.6
			c-10.2,2.2-18.2,10.1-20.4,20.3c-0.4,1.8-0.6,3.8-0.6,5.7v417.7c0,14.7,11.9,26.6,26.6,26.6h164.7c14.7,0,26.6-11.9,26.6-26.6
			V453.5z M202.2,479.6H37.5c-14.2,0-25.8-11.6-25.8-25.8V36.1c0-0.2,0-0.4,0-0.5C12,21.7,23.5,10.4,37.5,10.4h164.7
			c14,0,25.4,11.3,25.7,25.2c0,0.2,0,0.4,0,0.5v418.2l0,0C227.7,468.3,216.3,479.6,202.2,479.6z M228.8,453.5V36.1
			c0-1.4-0.1-2.8-0.3-4.1c-1.7-10.9-10-19.6-20.7-21.9c-1.8-0.4-3.7-0.6-5.6-0.6H37.5c-1.9,0-3.8,0.2-5.6,0.6
			c-10.2,2.2-18.2,10.1-20.4,20.3c-0.4,1.8-0.6,3.8-0.6,5.7v417.7c0,14.7,11.9,26.6,26.6,26.6h164.7c14.7,0,26.6-11.9,26.6-26.6
			V453.5z M202.2,479.6H37.5c-14.2,0-25.8-11.6-25.8-25.8V36.1c0-0.2,0-0.4,0-0.5C12,21.7,23.5,10.4,37.5,10.4h164.7
			c14,0,25.4,11.3,25.7,25.2c0,0.2,0,0.4,0,0.5v418.2l0,0C227.7,468.3,216.3,479.6,202.2,479.6z M228.8,453.5V36.1
			c0-1.4-0.1-2.8-0.3-4.1c-1.7-10.9-10-19.6-20.7-21.9c-1.8-0.4-3.7-0.6-5.6-0.6H37.5c-1.9,0-3.8,0.2-5.6,0.6
			c-10.2,2.2-18.2,10.1-20.4,20.3c-0.4,1.8-0.6,3.8-0.6,5.7v417.7c0,14.7,11.9,26.6,26.6,26.6h164.7c14.7,0,26.6-11.9,26.6-26.6
			V453.5z M202.2,479.6H37.5c-14.2,0-25.8-11.6-25.8-25.8V36.1c0-0.2,0-0.4,0-0.5C12,21.7,23.5,10.4,37.5,10.4h164.7
			c14,0,25.4,11.3,25.7,25.2c0,0.2,0,0.4,0,0.5v418.2l0,0C227.7,468.3,216.3,479.6,202.2,479.6z M228.8,453.5V36.1
			c0-1.4-0.1-2.8-0.3-4.1c-1.7-10.9-10-19.6-20.7-21.9c-1.8-0.4-3.7-0.6-5.6-0.6H37.5c-1.9,0-3.8,0.2-5.6,0.6
			c-10.2,2.2-18.2,10.1-20.4,20.3c-0.4,1.8-0.6,3.8-0.6,5.7v417.7c0,14.7,11.9,26.6,26.6,26.6h164.7c14.7,0,26.6-11.9,26.6-26.6
			V453.5z M202.2,479.6H37.5c-14.2,0-25.8-11.6-25.8-25.8V36.1c0-0.2,0-0.4,0-0.5C12,21.7,23.5,10.4,37.5,10.4h164.7
			c14,0,25.4,11.3,25.7,25.2c0,0.2,0,0.4,0,0.5v418.2l0,0C227.7,468.3,216.3,479.6,202.2,479.6z M228.8,453.5V36.1
			c0-1.4-0.1-2.8-0.3-4.1c-1.7-10.9-10-19.6-20.7-21.9c-1.8-0.4-3.7-0.6-5.6-0.6H37.5c-1.9,0-3.8,0.2-5.6,0.6
			c-10.2,2.2-18.2,10.1-20.4,20.3c-0.4,1.8-0.6,3.8-0.6,5.7v417.7c0,14.7,11.9,26.6,26.6,26.6h164.7c14.7,0,26.6-11.9,26.6-26.6
			V453.5z M202.2,479.6H37.5c-14.2,0-25.8-11.6-25.8-25.8V36.1c0-0.2,0-0.4,0-0.5C12,21.7,23.5,10.4,37.5,10.4h164.7
			c14,0,25.4,11.3,25.7,25.2c0,0.2,0,0.4,0,0.5v418.2l0,0C227.7,468.3,216.3,479.6,202.2,479.6z M228.8,453.5V36.1
			c0-1.4-0.1-2.8-0.3-4.1c-1.7-10.9-10-19.6-20.7-21.9c-1.8-0.4-3.7-0.6-5.6-0.6H37.5c-1.9,0-3.8,0.2-5.6,0.6
			c-10.2,2.2-18.2,10.1-20.4,20.3c-0.4,1.8-0.6,3.8-0.6,5.7v417.7c0,14.7,11.9,26.6,26.6,26.6h164.7c14.7,0,26.6-11.9,26.6-26.6
			V453.5z M202.2,479.6H37.5c-14.2,0-25.8-11.6-25.8-25.8V36.1c0-0.2,0-0.4,0-0.5C12,21.7,23.5,10.4,37.5,10.4h164.7
			c14,0,25.4,11.3,25.7,25.2c0,0.2,0,0.4,0,0.5v418.2l0,0C227.7,468.3,216.3,479.6,202.2,479.6z"/>
		<path class="st0" d="M236.2,134.8v-0.3h0.6V36.1c0-8.5-3.1-16.4-8.3-22.4c-1.1-1.3-2.3-2.5-3.5-3.6c-6.1-5.3-14-8.6-22.8-8.6H37.5
			c-8.7,0-16.7,3.2-22.8,8.6c-1.1,1-2.2,2.1-3.2,3.2c-5.3,6.1-8.6,14.1-8.6,22.8v54.1c0.1,0,0.2,0,0.3,0h0.4v0.3h0.3v18.2H3.6v0.3
			H3.2c-0.1,0-0.2,0-0.3,0v13c0.1,0,0.2,0,0.3,0h0.4v0.3h0.3v35.3H3.6v0.3H3.2c-0.1,0-0.2,0-0.3,0v8.3c0.1,0,0.2,0,0.3,0h0.4v0.3
			h0.3v35.3H3.6v0.3H3.2c-0.1,0-0.2,0-0.3,0v251.8c0,19,15.5,34.6,34.6,34.6h164.7c19.1,0,34.6-15.5,34.6-34.6V190h-0.6v-0.3h-0.6
			v-54.8L236.2,134.8L236.2,134.8z M202.2,480.5H37.5c-14.7,0-26.6-11.9-26.6-26.6V36.1c0-2,0.2-3.9,0.6-5.7
			c2.2-10.1,10.2-18.1,20.4-20.3c1.8-0.4,3.7-0.6,5.6-0.6h164.7c1.9,0,3.8,0.2,5.6,0.6c10.7,2.3,19,11,20.7,21.9
			c0.2,1.3,0.3,2.7,0.3,4.1v417.3v0.4C228.8,468.5,216.9,480.5,202.2,480.5z"/>
	</g>
	<g>
		<path class="st0" d="M3.2,91v-0.3c-1.2,0-2.2,1-2.2,2.2v13.5c0,1.2,1,2.2,2.2,2.2v-0.3h0.3V91H3.2L3.2,91L3.2,91z"/>
		<path class="st6" d="M3.6,90.6v-0.3H3.2c-0.1,0-0.2,0-0.3,0c-0.2,0-0.3,0.1-0.4,0.1c-0.1,0-0.3,0.1-0.4,0.2
			C1.2,91,0.6,91.9,0.6,93v13.5c0,1,0.6,1.9,1.5,2.4c0.1,0.1,0.3,0.1,0.4,0.2c0.1,0,0.3,0.1,0.4,0.1c0.1,0,0.2,0,0.3,0h0.4v-0.3h0.3
			V90.6H3.6z M3.1,107.9H2.8v0.2c-0.1,0-0.2-0.1-0.3-0.1c-0.2-0.1-0.3-0.2-0.4-0.3c-0.4-0.3-0.6-0.8-0.6-1.3V92.9
			c0-0.5,0.2-1,0.6-1.3c0.1-0.1,0.3-0.2,0.4-0.3c0.1,0,0.2-0.1,0.3-0.1v0.3h0.3V107.9z"/>
	</g>
	<g>
		<path class="st0" d="M3.2,122.8v-0.3c-1.2,0-2.2,1-2.2,2.2v30.6c0,1.2,1,2.2,2.2,2.2v-0.3h0.3v-34.4L3.2,122.8L3.2,122.8
			L3.2,122.8z"/>
		<path class="st6" d="M3.6,122.4V122H3.2c-0.1,0-0.2,0-0.3,0c-0.2,0-0.3,0-0.4,0.1c-0.1,0-0.3,0.1-0.4,0.2
			c-0.9,0.4-1.5,1.3-1.5,2.4v30.6c0,1,0.6,1.9,1.5,2.4c0.1,0.1,0.3,0.1,0.4,0.2c0.1,0,0.3,0.1,0.4,0.1c0.1,0,0.2,0,0.3,0h0.4v-0.3
			h0.3v-35.3C3.9,122.4,3.6,122.4,3.6,122.4z M3.1,156.8H2.8v0.2c-0.1,0-0.2-0.1-0.3-0.1c-0.2-0.1-0.3-0.2-0.4-0.3
			c-0.4-0.3-0.6-0.8-0.6-1.3v-30.6c0-0.5,0.2-1,0.6-1.4c0.1-0.1,0.3-0.2,0.4-0.3c0.1,0,0.2-0.1,0.3-0.1v0.3h0.3V156.8z"/>
	</g>
	<g>
		<path class="st0" d="M3.2,166.9v-0.3c-1.2,0-2.2,1-2.2,2.2v30.6c0,1.2,1,2.2,2.2,2.2v-0.3h0.3v-34.4H3.2L3.2,166.9L3.2,166.9z"/>
		<path class="st6" d="M3.6,166.5v-0.3H3.2c-0.1,0-0.2,0-0.3,0c-0.2,0-0.3,0-0.4,0.1c-0.1,0-0.3,0.1-0.4,0.2
			c-0.9,0.4-1.5,1.3-1.5,2.4v30.6c0,1,0.6,1.9,1.5,2.4c0.1,0.1,0.3,0.1,0.4,0.2c0.1,0,0.3,0.1,0.4,0.1c0.1,0,0.2,0,0.3,0h0.4v-0.3
			h0.3v-35.3L3.6,166.5L3.6,166.5z M3.1,200.9H2.8v0.2c-0.1,0-0.2-0.1-0.3-0.1c-0.2-0.1-0.3-0.2-0.4-0.3c-0.4-0.3-0.6-0.8-0.6-1.3
			v-30.6c0-0.5,0.2-1,0.6-1.4c0.1-0.1,0.3-0.2,0.4-0.3c0.1,0,0.2-0.1,0.3-0.1v0.3h0.3V200.9z"/>
	</g>
</g>
</svg>
