<svg width="100%" height="100%" viewBox="0 0 58 24" fill="none" xmlns="http://www.w3.org/2000/svg">
<path d="M22.8555 4.30462V0.414795H26.7453V4.30462H22.8555Z" fill="white"/>
<path d="M42.5548 10.551V18.4578H38.6649V11.8646C38.6649 10.5129 37.6353 9.40273 36.3217 9.26714C36.2327 9.25866 36.1437 9.25443 36.0548 9.25443H36.0505C35.9997 9.25443 35.9488 9.25443 35.898 9.26291C35.8937 9.25867 35.8895 9.25867 35.8853 9.26291C34.8132 9.32647 33.9149 10.0426 33.5844 11.0171C33.5548 11.0934 33.5336 11.1739 33.5166 11.2544C33.5166 11.2544 33.5124 11.2629 33.5124 11.2671C33.4997 11.3137 33.4912 11.3561 33.487 11.4027C33.4615 11.5214 33.4446 11.6485 33.4446 11.7756V18.4578H29.6226V6.1019H33.5124V8.16968C33.5124 8.16968 33.5209 8.1485 33.5293 8.13579C33.9531 7.40698 34.542 6.84342 35.2963 6.44512C35.9276 6.11037 36.6268 5.91968 37.3937 5.8646C37.5421 5.85188 37.6946 5.84766 37.8514 5.84766C38.7666 5.84766 39.5759 6.06376 40.2793 6.49596C40.8895 6.87308 41.3895 7.35189 41.7751 7.94088C41.8344 8.02562 41.8895 8.11884 41.9446 8.21206C42.3514 8.92392 42.5548 9.70359 42.5548 10.551V10.551Z" fill="white"/>
<path d="M9.79237 6.1019V6.92392C9.50847 6.68663 9.19491 6.48324 8.83898 6.31799C8.16949 6.00443 7.41101 5.84766 6.56355 5.84766C5.42796 5.84766 4.41949 6.1146 3.53813 6.6485C2.65677 7.18239 1.96186 7.91121 1.45339 8.83494C0.944911 9.75867 0.690674 10.7968 0.690674 11.9493C0.690674 13.1019 0.944911 14.1188 1.45339 15.051C1.96186 15.9832 2.65677 16.7205 3.53813 17.2629C4.41949 17.8053 5.42796 18.0765 6.56355 18.0765C7.39406 18.0765 8.1483 17.9155 8.82627 17.5934C9.15254 17.4366 9.44915 17.2502 9.71609 17.0383V17.8222C9.71609 18.6866 9.44067 19.3561 8.88982 19.8307C8.33898 20.3053 7.5805 20.5426 6.6144 20.5426C5.83474 20.5426 5.16949 20.407 4.61864 20.1358C4.06779 19.8646 3.57203 19.4663 3.13135 18.9409L0.741521 21.3307C1.33474 22.1782 2.14406 22.8349 3.16949 23.301C4.19491 23.7671 5.38559 24.0002 6.74152 24.0002C8.09745 24.0002 9.24152 23.7375 10.2754 23.2121C11.3093 22.6866 12.1229 21.9578 12.7161 21.0256C13.3093 20.0934 13.6059 18.9917 13.6059 17.7205V6.1019H9.79237V6.1019ZM8.71186 14.2629C8.31355 14.5002 7.84321 14.6188 7.30084 14.6188C6.75847 14.6188 6.28813 14.5002 5.88983 14.2629C5.49152 14.0256 5.1822 13.6993 4.96186 13.2841C4.74152 12.8688 4.63135 12.4239 4.63135 11.9493C4.63135 11.4409 4.74152 10.9832 4.96186 10.5765C5.1822 10.1697 5.49576 9.84766 5.90254 9.61037C6.30932 9.37308 6.77542 9.25443 7.30084 9.25443C7.82627 9.25443 8.31355 9.37308 8.71186 9.61037C9.11016 9.84766 9.41525 10.1697 9.62711 10.5765C9.83898 10.9832 9.94491 11.4409 9.94491 11.9493C9.94491 12.4578 9.83898 12.9112 9.62711 13.3095C9.41525 13.7078 9.11016 14.0256 8.71186 14.2629Z" fill="white"/>
<path d="M16.3516 18.4576V0H20.2414V18.4576H16.3516Z" fill="white"/>
<path d="M22.8555 18.4578V6.10193H26.7453V18.4578H22.8555Z" fill="white"/>
<path d="M53.4957 6.08432V6.90635C53.2118 6.66906 52.8983 6.46566 52.5423 6.30041C51.8729 5.98685 51.1144 5.83008 50.2669 5.83008C49.1313 5.83008 48.1229 6.09703 47.2415 6.63093C46.3601 7.16483 45.6652 7.89363 45.1568 8.81736C44.6483 9.74109 44.394 10.7792 44.394 11.9318C44.394 13.0843 44.6483 14.1013 45.1568 15.0335C45.6652 15.9657 46.3601 16.703 47.2415 17.2453C48.1229 17.7877 49.1313 18.0589 50.2669 18.0589C51.0974 18.0589 51.8517 17.8979 52.5296 17.5758C52.8559 17.4191 53.1525 17.2326 53.4195 17.0208V17.8047C53.4195 18.6691 53.144 19.3385 52.5932 19.8131C52.0423 20.2877 51.2839 20.525 50.3178 20.525C49.5381 20.525 48.8729 20.3894 48.322 20.1182C47.7712 19.847 47.2754 19.4487 46.8347 18.9233L44.4449 21.3131C45.0381 22.1606 45.8474 22.8174 46.8729 23.2835C47.8983 23.7496 49.089 23.9826 50.4449 23.9826C51.8008 23.9826 52.9449 23.7199 53.9788 23.1945C55.0127 22.6691 55.8262 21.9402 56.4195 21.008C57.0127 20.0758 57.3093 18.9741 57.3093 17.703V6.08432H53.4957V6.08432ZM52.4152 14.2453C52.0169 14.4826 51.5466 14.6013 51.0042 14.6013C50.4618 14.6013 49.9915 14.4826 49.5932 14.2453C49.1949 14.008 48.8856 13.6818 48.6652 13.2665C48.4449 12.8513 48.3347 12.4063 48.3347 11.9318C48.3347 11.4233 48.4449 10.9657 48.6652 10.5589C48.8856 10.1521 49.1991 9.83008 49.6059 9.59279C50.0127 9.3555 50.4788 9.23686 51.0042 9.23686C51.5296 9.23686 52.0169 9.3555 52.4152 9.59279C52.8135 9.83008 53.1186 10.1521 53.3305 10.5589C53.5423 10.9657 53.6483 11.4233 53.6483 11.9318C53.6483 12.4402 53.5423 12.8936 53.3305 13.2919C53.1186 13.6902 52.8135 14.008 52.4152 14.2453Z" fill="white"/>
</svg>
