<svg width="18" height="19" viewBox="0 0 18 19" fill="none" xmlns="http://www.w3.org/2000/svg">
<path fill-rule="evenodd" clip-rule="evenodd" d="M13.0902 7.78977L8.05016 12.8998L4.91016 9.71977L5.94016 8.69977L8.05016 10.8298L12.0602 6.75977L13.0902 7.77977V7.78977Z" fill="#868E96"/>
<path fill-rule="evenodd" clip-rule="evenodd" d="M9 15.64C12.39 15.64 15.14 12.89 15.14 9.5C15.14 6.11 12.39 3.36 9 3.36C5.61 3.36 2.86 6.11 2.86 9.5C2.86 12.89 5.61 15.64 9 15.64ZM9 17C13.14 17 16.5 13.64 16.5 9.5C16.5 5.36 13.14 2 9 2C4.86 2 1.5 5.36 1.5 9.5C1.5 13.64 4.86 17 9 17Z" fill="#868E96"/>
</svg>
