<svg width="18" height="18" viewBox="0 0 18 18" fill="none" xmlns="http://www.w3.org/2000/svg">
<circle cx="9" cy="9" r="7.5" fill="white"/>
<path d="M9 1.5C7.51664 1.5 6.06659 1.93986 4.83323 2.76397C3.59986 3.58808 2.63857 4.75942 2.07091 6.12986C1.50326 7.50031 1.35472 9.00832 1.64411 10.4632C1.9335 11.918 2.64779 13.2544 3.69668 14.3033C4.74558 15.3522 6.08196 16.0665 7.53682 16.3559C8.99168 16.6453 10.4997 16.4967 11.8701 15.9291C13.2406 15.3614 14.4119 14.4001 15.236 13.1668C16.0601 11.9334 16.5 10.4834 16.5 9C16.5 7.01088 15.7098 5.10321 14.3033 3.69668C12.8968 2.29016 10.9891 1.5 9 1.5V1.5ZM5.42045 10.1932C5.18446 10.1932 4.95379 10.1232 4.75757 9.9921C4.56135 9.86099 4.40843 9.67462 4.31812 9.4566C4.22781 9.23857 4.20416 8.99866 4.2502 8.76721C4.29624 8.53575 4.40988 8.32317 4.57675 8.1563C4.74362 7.98943 4.95621 7.87579 5.18766 7.82975C5.41911 7.78371 5.65903 7.80735 5.87705 7.89766C6.09508 7.98797 6.28144 8.1409 6.41255 8.33712C6.54366 8.53333 6.61363 8.76401 6.61363 9C6.61363 9.31645 6.48792 9.61993 6.26415 9.8437C6.04039 10.0675 5.7369 10.1932 5.42045 10.1932V10.1932ZM9 10.1932C8.76401 10.1932 8.53333 10.1232 8.33712 9.9921C8.1409 9.86099 7.98797 9.67462 7.89766 9.4566C7.80735 9.23857 7.78371 8.99866 7.82975 8.76721C7.87579 8.53575 7.98943 8.32317 8.1563 8.1563C8.32317 7.98943 8.53575 7.87579 8.76721 7.82975C8.99866 7.78371 9.23857 7.80735 9.4566 7.89766C9.67462 7.98797 9.86099 8.1409 9.9921 8.33712C10.1232 8.53333 10.1932 8.76401 10.1932 9C10.1932 9.31645 10.0675 9.61993 9.8437 9.8437C9.61993 10.0675 9.31645 10.1932 9 10.1932V10.1932ZM12.5795 10.1932C12.3436 10.1932 12.1129 10.1232 11.9167 9.9921C11.7204 9.86099 11.5675 9.67462 11.4772 9.4566C11.3869 9.23857 11.3633 8.99866 11.4093 8.76721C11.4553 8.53575 11.569 8.32317 11.7358 8.1563C11.9027 7.98943 12.1153 7.87579 12.3468 7.82975C12.5782 7.78371 12.8181 7.80735 13.0361 7.89766C13.2542 7.98797 13.4405 8.1409 13.5716 8.33712C13.7028 8.53333 13.7727 8.76401 13.7727 9C13.7727 9.31645 13.647 9.61993 13.4232 9.8437C13.1995 10.0675 12.896 10.1932 12.5795 10.1932V10.1932Z" fill="#868E96"/>
</svg>
